<?xml version="1.0"?>
<svg xmlns="http://www.w3.org/2000/svg" viewBox="0 0 64 64" width="512px" height="512px"><g><g id="outline"><rect x="25" y="48" width="2" height="2" data-original="#000000" class="active-path" data-old_color="#000000" fill="#FFFFFF"/><rect x="25" y="52" width="2" height="2" data-original="#000000" class="active-path" data-old_color="#000000" fill="#FFFFFF"/><path d="M58,26V19h1a1,1,0,0,0,1-1V14a1,1,0,0,0-1-1H50V3a1,1,0,0,0-1-1H36a1,1,0,0,0-.707.293L32,5.586,30.707,4.293a1,1,0,0,0-1.154-.188l-4,2a1,1,0,0,0-.26,1.6l9,9A1,1,0,0,0,35,17a.959.959,0,0,0,.16-.013,1,1,0,0,0,.735-.54l2-4a1,1,0,0,0-.188-1.154L36.414,10l2-2H44V22H39a1,1,0,0,0-1,1v4a1,1,0,0,0,1,1h5V38.586l-4.293-4.293A1,1,0,0,0,39,34H22V30h2v1a1,1,0,0,0,1,1H35a1,1,0,0,0,1-1V27a1,1,0,0,0-1-1H25a1,1,0,0,0-1,1v1H21a1,1,0,0,0-1,1v5H15.721L12,22.837V16a4,4,0,0,0-8,0v7a1.9,1.9,0,0,0,.051.316l6,18A1,1,0,0,0,11,42h7v3a1,1,0,0,0,1,1h2V56H18a1,1,0,0,0-.895.553l-2,4A1,1,0,0,0,16,62H36a1,1,0,0,0,.9-1.447l-2-4A1,1,0,0,0,34,56H31V46h2a1,1,0,0,0,1-1V42h2.586L44,49.414V56H42a1,1,0,0,0-.9.553l-2,4A1,1,0,0,0,40,62H54a1,1,0,0,0,.9-1.447l-2-4A1,1,0,0,0,52,56H50V53.324a3.566,3.566,0,0,0,2.854-1.8,3.511,3.511,0,0,0,.536-1.841,4.885,4.885,0,0,0-1.683-3.387L50,44.586V19h2v7h2V19h2v7ZM26,28h8v2H26ZM6,16a2,2,0,0,1,4,0v6H6Zm5.721,24L6.387,24h3.892l5.333,16ZM46,4h2V56H46ZM34.726,14.312,27.688,7.274,29.8,6.217l5.98,5.98ZM38,6a1,1,0,0,0-.707.293L35,8.586,33.414,7l3-3H44V6Zm2,20V24h4v2ZM17.721,40l-1.333-4H20v4ZM33.382,58l1,2H17.618l1-2ZM23,56V46h6V56Zm9-12H20V42H32Zm5.707-3.707A1,1,0,0,0,37,40H22V36H38.586L44,41.414v5.172ZM51.382,58l1,2H41.618l1-2ZM50.293,47.707a3.042,3.042,0,0,1,1.1,1.973,1.514,1.514,0,0,1-.247.8A1.668,1.668,0,0,1,50,51.317v-3.9ZM50,17V15h8v2Z" data-original="#000000" class="active-path" data-old_color="#000000" fill="#FFFFFF"/></g></g> </svg>
