<?xml version="1.0"?>
<svg xmlns="http://www.w3.org/2000/svg" height="512px" viewBox="0 0 64 64" width="512px"><g><path d="m9.8 32.02a5.36 5.36 0 0 0 -3.2 2.38c-1.2 1.9-1.4 4.538-.57 7.843l1.94-.486c-.672-2.688-.571-4.849.293-6.251a3.363 3.363 0 0 1 1.944-1.528l-.207-.978z" data-original="#000000" class="active-path" data-old_color="#000000" fill="#FFFFFF"/><path d="m7.5 43.882h2v2.236h-2z" transform="matrix(.894 -.447 .447 .894 -19.227 8.552)" data-original="#000000" class="active-path" data-old_color="#000000" fill="#FFFFFF"/><path d="m41 6a11 11 0 1 0 11 11 11.013 11.013 0 0 0 -11-11zm0 20a9 9 0 1 1 9-9 9.01 9.01 0 0 1 -9 9z" data-original="#000000" class="active-path" data-old_color="#000000" fill="#FFFFFF"/><path d="m54.308 23.894a14.995 14.995 0 1 0 -28.308-6.894c0 .178.021.351.027.527l-4.019 11.163a12.851 12.851 0 0 0 -2.608 1.51 3.383 3.383 0 0 1 -2.8 0 10.053 10.053 0 0 0 -5.6-2.2c-5.131 0-9 4.729-9 11a17.213 17.213 0 0 0 2.112 7.46c1.488 2.878 2.606 5.368 3.588 7.564 2.232 4.976 3.577 7.976 6.3 7.976 3 0 3-2.936 3-7 0-2.281.174-5 1-5s1 2.719 1 5c0 4.064 0 7 3 7 2.723 0 4.068-3 6.3-7.976.985-2.2 2.1-4.686 3.592-7.566a17.209 17.209 0 0 0 2.108-7.458 14.138 14.138 0 0 0 -.627-4.157l6.654-2.892c.323.021.644.049.973.049a14.9 14.9 0 0 0 6.894-1.692l12.4 12.4a1 1 0 0 0 1.706-.708v-10a1 1 0 0 0 -.293-.707zm-24.196 21.646c-1.516 2.928-2.694 5.555-3.639 7.666-1.834 4.094-3.045 6.794-4.473 6.794-.726 0-1-.431-1-5 0-3.542-.231-7-3-7s-3 3.458-3 7c0 4.569-.274 5-1 5-1.428 0-2.639-2.7-4.473-6.794-.945-2.106-2.127-4.738-3.638-7.664a15.25 15.25 0 0 1 -1.889-6.542c0-4.473 2.4-9 7-9a7.9 7.9 0 0 1 4.4 1.8 5.188 5.188 0 0 0 5.2 0c.114-.086.25-.181.388-.276l-2.928 8.137a1 1 0 0 0 .94 1.339.987.987 0 0 0 .4-.083l12.136-5.275a12.2 12.2 0 0 1 .464 3.358 15.247 15.247 0 0 1 -1.888 6.54zm-9.386-7.38 5.981-16.619a15.061 15.061 0 0 0 9.787 9.765zm20.274-8.16a13 13 0 1 1 13-13 13.015 13.015 0 0 1 -13 13zm19 9.586-10.351-10.351a15.126 15.126 0 0 0 3.585-3.586l6.766 6.765z" data-original="#000000" class="active-path" data-old_color="#000000" fill="#FFFFFF"/><path d="m44 17a1 1 0 0 1 -1-1h-2a3 3 0 0 0 6 0h-2a1 1 0 0 1 -1 1z" data-original="#000000" class="active-path" data-old_color="#000000" fill="#FFFFFF"/><path d="m38 21a1 1 0 0 1 -1-1h-2a3 3 0 0 0 6 0h-2a1 1 0 0 1 -1 1z" data-original="#000000" class="active-path" data-old_color="#000000" fill="#FFFFFF"/><path d="m38 13a1 1 0 0 1 1 1h2a3 3 0 0 0 -6 0h2a1 1 0 0 1 1-1z" data-original="#000000" class="active-path" data-old_color="#000000" fill="#FFFFFF"/><path d="m44 12h2v2h-2z" data-original="#000000" class="active-path" data-old_color="#000000" fill="#FFFFFF"/><path d="m43 21h2v2h-2z" data-original="#000000" class="active-path" data-old_color="#000000" fill="#FFFFFF"/><path d="m36 16h2v2h-2z" data-original="#000000" class="active-path" data-old_color="#000000" fill="#FFFFFF"/><path d="m39 36v2h-2v2h2v2h2v-2h2v-2h-2v-2z" data-original="#000000" class="active-path" data-old_color="#000000" fill="#FFFFFF"/><path d="m22 13v-2h2v-2h-2v-2h-2v2h-2v2h2v2z" data-original="#000000" class="active-path" data-old_color="#000000" fill="#FFFFFF"/><path d="m18 26v-2h2v-2h-2v-2h-2v2h-2v2h2v2z" data-original="#000000" class="active-path" data-old_color="#000000" fill="#FFFFFF"/><path d="m12 14h2v2h-2z" data-original="#000000" class="active-path" data-old_color="#000000" fill="#FFFFFF"/><path d="m35 46h2v2h-2z" data-original="#000000" class="active-path" data-old_color="#000000" fill="#FFFFFF"/><path d="m48 36h2v2h-2z" data-original="#000000" class="active-path" data-old_color="#000000" fill="#FFFFFF"/><path d="m5 23h2v2h-2z" data-original="#000000" class="active-path" data-old_color="#000000" fill="#FFFFFF"/></g> </svg>
