<?xml version="1.0"?>
<svg xmlns="http://www.w3.org/2000/svg" viewBox="0 0 64 64" width="512px" height="512px"><g><g id="outline"><path d="M3,62H61a1,1,0,0,0,1-1V51a3,3,0,0,0-3-3h-.864q.355-.765.754-1.544A9.448,9.448,0,0,0,60,42c0-4.056-2.523-7-6-7a5.98,5.98,0,0,0-3.607,1.2.76.76,0,0,1-.787,0A5.975,5.975,0,0,0,46,35c-3.477,0-6,2.944-6,7a9.455,9.455,0,0,0,1.11,4.457c.264.513.5,1.026.725,1.543h-19.7q.356-.765.754-1.544A9.448,9.448,0,0,0,24,42c0-4.056-2.523-7-6-7a5.98,5.98,0,0,0-3.607,1.2.76.76,0,0,1-.787,0A5.975,5.975,0,0,0,10,35c-3.477,0-6,2.944-6,7a9.455,9.455,0,0,0,1.11,4.457c.264.513.5,1.026.725,1.543H5a3,3,0,0,0-3,3V61A1,1,0,0,0,3,62ZM46,37a4.021,4.021,0,0,1,2.393.8,2.759,2.759,0,0,0,3.213,0A4.026,4.026,0,0,1,54,37c2.355,0,4,2.056,4,5a7.408,7.408,0,0,1-.89,3.543c-.483.942-.918,1.876-1.307,2.787A10.84,10.84,0,0,1,50,50a11.366,11.366,0,0,1-5.878-1.661,26.346,26.346,0,0,0-1.232-2.8A7.415,7.415,0,0,1,42,42C42,39.056,43.645,37,46,37ZM10,37a4.021,4.021,0,0,1,2.393.8,2.759,2.759,0,0,0,3.213,0A4.026,4.026,0,0,1,18,37c2.355,0,4,2.056,4,5a7.408,7.408,0,0,1-.89,3.543c-.483.942-.918,1.876-1.307,2.787A10.84,10.84,0,0,1,14,50a11.38,11.38,0,0,1-5.877-1.66,26.484,26.484,0,0,0-1.233-2.8A7.415,7.415,0,0,1,6,42C6,39.056,7.645,37,10,37ZM4,51a1,1,0,0,1,1-1H7a13.278,13.278,0,0,0,7,2,12.814,12.814,0,0,0,6.909-2H43a13.282,13.282,0,0,0,7,2,12.814,12.814,0,0,0,6.909-2H59a1,1,0,0,1,1,1v9H4Z" data-original="#000000" class="active-path" data-old_color="#000000" fill="#FFFFFF"/><path d="M32,55c-3.536,0-6-1.581-6-3H24c0,2.8,3.514,5,8,5s8-2.2,8-5H38C38,53.419,35.536,55,32,55Z" data-original="#000000" class="active-path" data-old_color="#000000" fill="#FFFFFF"/><path d="M17.555,40.832l-1.11-1.664a4.61,4.61,0,0,1-4.895,0l-1.105,1.667A7.164,7.164,0,0,0,14.117,41.9,6.1,6.1,0,0,0,17.555,40.832Z" data-original="#000000" class="active-path" data-old_color="#000000" fill="#FFFFFF"/><path d="M29.55,26.165l-1.105,1.667A7.164,7.164,0,0,0,32.117,28.9a6.1,6.1,0,0,0,3.438-1.063l-1.11-1.664A4.61,4.61,0,0,1,29.55,26.165Z" data-original="#000000" class="active-path" data-old_color="#000000" fill="#FFFFFF"/><path d="M53.555,40.832l-1.11-1.664a4.61,4.61,0,0,1-4.9,0l-1.1,1.667A7.164,7.164,0,0,0,50.117,41.9,6.1,6.1,0,0,0,53.555,40.832Z" data-original="#000000" class="active-path" data-old_color="#000000" fill="#FFFFFF"/><path d="M36,2H28a1,1,0,0,0-1,1V5.634L16.237,18.354a2.317,2.317,0,0,0-.185.359c-.008.028-.017.054-.023.083a1.931,1.931,0,0,0-.009.4l2,10A1,1,0,0,0,19,30h3.058a9.694,9.694,0,0,0,1.051,3.455,26.877,26.877,0,0,1,2.28,6.755C25.844,42.244,26.237,44,28,44c.7,0,3-.36,3-5,0-1.421.285-1.815.372-1.9s.254-.1.57-.1h.116c.323,0,.481.009.57.1S33,37.579,33,39c0,4.64,2.3,5,3,5,1.763,0,2.156-1.756,2.611-3.79a26.877,26.877,0,0,1,2.28-6.755A9.694,9.694,0,0,0,41.942,30H45a1,1,0,0,0,.98-.8l2-10a1.931,1.931,0,0,0-.009-.4c-.006-.029-.015-.055-.023-.083a2.317,2.317,0,0,0-.185-.359L37,5.634V3A1,1,0,0,0,36,2ZM29,6V4h2V6h2V4h2v8H29ZM22,28H19.82l-1.6-8H22Zm.532-10H19.156L27,8.73v3.908ZM39.109,32.545a28.571,28.571,0,0,0-2.449,7.228A8.309,8.309,0,0,1,36,42c-.5,0-1-1.03-1-3a4.508,4.508,0,0,0-.959-3.318A2.622,2.622,0,0,0,32.053,35h-.106a2.621,2.621,0,0,0-1.988.682A4.508,4.508,0,0,0,29,39c0,1.97-.5,3-.97,3.02a7.487,7.487,0,0,1-.69-2.247,28.571,28.571,0,0,0-2.449-7.228A7.454,7.454,0,0,1,24,29c0-2.944,1.645-5,4-5a4.018,4.018,0,0,1,2.393.794,2.754,2.754,0,0,0,3.214,0A4.018,4.018,0,0,1,36,24c2.355,0,4,2.056,4,5A7.454,7.454,0,0,1,39.109,32.545ZM40,23.659A5.548,5.548,0,0,0,36,22a5.957,5.957,0,0,0-3.607,1.206.76.76,0,0,1-.786,0A5.957,5.957,0,0,0,28,22a5.548,5.548,0,0,0-4,1.659v-4.3L28.468,14h7.064L40,19.362ZM44.18,28H42V20h3.78Zm.664-10H41.468L37,12.638V8.73Z" data-original="#000000" class="active-path" data-old_color="#000000" fill="#FFFFFF"/><rect x="31" y="8" width="2" height="2" data-original="#000000" class="active-path" data-old_color="#000000" fill="#FFFFFF"/></g></g> </svg>
