<svg width="56" height="56" viewBox="0 0 56 56" fill="none" xmlns="http://www.w3.org/2000/svg">
<rect opacity="0.3" width="56" height="56" rx="28" fill="#FFB201"/>
<path d="M32.5 34.5C30.8333 32.5 28.4 28.3 32 27.5C34 27.6667 36.8999 29.3 32.5 34.5Z" fill="white"/>
<path d="M22.5 25.5C20.8333 23.5 18.4 19.3 22 18.5C24 18.6667 26.8999 20.3 22.5 25.5Z" fill="white"/>
<path d="M37.9666 27.241C37.9782 27.2097 37.9848 27.177 37.9863 27.1436C37.9863 27.1084 37.9806 27.0733 37.9697 27.0399L37.944 26.9671C37.6715 24.3341 36.3645 21.9171 34.31 20.248C34.1632 20.1284 34.0097 20.0204 33.8562 19.9096C33.8486 19.9032 33.8445 19.8943 33.8362 19.8882C33.8279 19.8822 33.8212 19.8829 33.8142 19.8785C32.1156 18.6608 30.0793 18.0044 27.9893 18.0005C27.9033 18.0005 27.8167 18.0005 27.7524 18.0071C26.6376 18.0288 25.5348 18.241 24.4916 18.6344C23.5871 17.9289 22.3594 17.801 21.3288 18.305C20.2983 18.8089 19.6454 19.8566 19.647 21.0037C19.6671 21.3853 19.7557 21.76 19.909 22.1098C19.5685 22.5754 19.2687 23.0692 19.013 23.5862C19.008 23.5942 19.0051 23.6028 19.0007 23.6111C16.6348 28.5029 18.6034 34.3889 23.4362 36.8731C28.2689 39.3573 34.201 37.5326 36.8021 32.7617C37.5145 31.4493 37.9193 29.9921 37.986 28.5005C37.9964 28.3395 38 28.1754 38 28.0112C38 27.7526 37.9866 27.4963 37.9666 27.241ZM36.997 25.5285C36.9546 25.4909 36.9155 25.4474 36.8712 25.4127C36.4352 25.0816 35.941 24.8348 35.4142 24.685C34.9345 24.5646 34.4332 24.5594 33.9511 24.6697C33.541 24.7626 33.1157 24.7647 32.7046 24.6759C31.9069 24.5017 31.2765 24.3644 30.9422 23.8304C30.4633 23.0629 30.6878 21.9841 31.1931 21.6044C31.3596 21.4896 31.5651 21.4457 31.764 21.4825C32.1179 21.5115 32.4736 21.4516 32.7985 21.3084C33.1442 21.1464 33.4513 20.9126 33.6995 20.6223C33.7626 20.671 33.8292 20.7148 33.8909 20.7651C35.3968 21.9911 36.4824 23.6563 36.997 25.5285ZM22.6502 18.6678C23.9395 18.67 24.9841 19.7145 24.9861 21.0037C24.9861 22.0018 23.4869 24.287 22.6502 25.4455C21.8569 24.3733 21.1675 23.2279 20.5917 22.0248C20.4348 21.7053 20.3406 21.3587 20.3144 21.0037C20.3159 19.7142 21.3608 18.6693 22.6502 18.6678ZM18.646 28.0112C18.6473 27.3894 18.71 26.7691 18.8332 26.1596C18.8688 26.6235 18.9293 27.0362 18.9834 27.3942C19.1902 28.7623 19.3855 30.0521 20.3939 31.2316C20.8156 31.7285 21.5218 32.5594 22.6136 32.6822C23.7054 32.8051 25.0726 32.1769 25.4675 31.9814L25.6191 31.905C25.8289 31.7729 26.0688 31.6961 26.3163 31.6818C26.7384 31.7201 27.1295 31.9198 27.4081 32.2393C27.9776 32.8697 28.1221 33.9223 27.7173 34.4918C27.5877 34.6609 27.4086 34.7854 27.2048 34.8479C26.8559 34.9646 26.5594 35.201 26.3679 35.5153C26.0859 36.026 26.0334 36.6322 26.2237 37.1838C21.829 36.3323 18.6528 32.4877 18.646 28.0112ZM27.9893 37.3545C27.6668 37.3545 27.3447 37.3379 27.0239 37.3048C26.9965 37.2698 26.9711 37.2333 26.9478 37.1953C26.7223 36.7782 26.7199 36.2759 26.9415 35.8567C27.0619 35.6654 27.2484 35.5251 27.4655 35.4625C27.7837 35.3529 28.0613 35.149 28.2612 34.8782C28.8416 34.0621 28.6774 32.6482 27.9042 31.7929C27.5021 31.3331 26.9331 31.0529 26.3236 31.0144H26.3088C25.9573 31.025 25.6148 31.127 25.3147 31.3105L25.1723 31.3825C24.4432 31.7419 23.4058 32.0973 22.6877 32.0165C21.859 31.9237 21.2835 31.2456 20.9018 30.7966C20.0167 29.7621 19.8435 28.6175 19.6434 27.2928C19.4287 26.1596 19.4202 24.9971 19.618 23.8607C19.7968 23.4989 19.9986 23.1489 20.2227 22.8129C20.2338 22.8351 20.246 22.8577 20.2561 22.8797C20.2774 22.9221 20.2994 22.9641 20.3227 23.0065C20.3561 23.0695 20.3895 23.1326 20.4229 23.1961C20.4459 23.2388 20.4692 23.2815 20.493 23.3245C20.5283 23.3879 20.564 23.4513 20.6 23.5147C20.6241 23.5567 20.6481 23.5989 20.6725 23.6409C20.7097 23.7043 20.7468 23.7674 20.7843 23.8304C20.8089 23.8718 20.8334 23.9129 20.8583 23.9539C20.8977 24.0206 20.9375 24.083 20.9772 24.1473C20.9999 24.1838 21.0222 24.2208 21.0439 24.2568C21.0932 24.336 21.1423 24.4128 21.1913 24.4905C21.2044 24.5105 21.2174 24.5315 21.2301 24.5513C21.2912 24.6459 21.3518 24.7383 21.4113 24.8284C21.4339 24.8618 21.4559 24.8952 21.4781 24.9286C21.5147 24.9837 21.5514 25.0388 21.5871 25.0914L21.6663 25.2072C21.695 25.2496 21.724 25.292 21.752 25.3324L21.832 25.4474C21.8567 25.4833 21.8815 25.5183 21.9051 25.5518C21.9288 25.5856 21.9555 25.6237 21.9803 25.6581C22.0049 25.6925 22.0216 25.7164 22.0414 25.7441L22.108 25.8362L22.1624 25.9116L22.2155 25.9848L22.2589 26.0434L22.2996 26.0988L22.3239 26.1322C22.3537 26.1726 22.3763 26.2029 22.3827 26.2112C22.4456 26.2953 22.5445 26.3449 22.6496 26.3449C22.7547 26.3449 22.8536 26.2953 22.9165 26.2112C23.1966 25.8399 25.6535 22.546 25.6535 21.0037C25.6535 20.9062 25.6474 20.8095 25.6381 20.7133C25.6352 20.6837 25.6305 20.654 25.6267 20.6244C25.6181 20.5576 25.6078 20.4908 25.5935 20.4241C25.5871 20.3907 25.5801 20.3594 25.5728 20.3273C25.5573 20.2605 25.5394 20.1939 25.519 20.1271C25.5107 20.1004 25.5037 20.0733 25.4949 20.0471C25.4649 19.9576 25.4312 19.8692 25.3929 19.7831C25.3856 19.7667 25.3768 19.7497 25.3691 19.7347C25.3357 19.6653 25.3025 19.5966 25.264 19.5294C25.2474 19.4995 25.229 19.4705 25.2111 19.441C25.179 19.3883 25.1456 19.3365 25.1109 19.2855C25.0902 19.2559 25.0692 19.2262 25.0475 19.1971C25.0361 19.1824 25.0265 19.1668 25.0141 19.1524C25.7084 18.9186 26.4284 18.7694 27.1585 18.7079C26.6382 19.6899 26.4683 20.5983 26.6625 21.4109C26.8074 21.9551 27.0822 22.4561 27.4635 22.8708C27.7775 23.2595 28.0033 23.5398 27.9893 23.9973C27.9606 24.965 26.8678 25.7705 26.4543 26.0749C25.9119 26.4654 25.3056 26.7582 24.6625 26.9404C24.0564 27.1383 23.5335 27.3091 23.3336 27.9058C23.1359 28.6937 23.4605 29.5205 24.1416 29.9633C24.5497 30.1838 25.0307 30.2263 25.4713 30.0808C25.9539 29.9687 26.4528 29.9447 26.9439 30.0104C27.5779 30.1002 28.1245 30.1772 28.3838 30.5403C28.5376 30.7571 28.5296 30.9813 28.4996 31.3926C28.4312 31.9747 28.4903 32.5649 28.6726 33.122C28.8248 33.5785 29.0547 34.2679 29.6071 34.3474C29.6429 34.3531 29.6792 34.356 29.7154 34.356C30.1063 34.356 30.3455 34.0109 30.5971 33.6479C30.7082 33.4874 30.8307 33.3142 30.9775 33.1404C31.6643 34.25 32.362 35.1759 32.3944 35.2199C32.4574 35.304 32.5563 35.3534 32.6613 35.3534C32.7664 35.3534 32.8653 35.304 32.9283 35.2199C33.6522 34.2505 34.3121 33.2344 34.9034 32.1787C35.3134 32.2975 35.7038 32.4754 36.0622 32.707C34.3926 35.5851 31.3166 37.356 27.9893 37.3545ZM34.2176 28.2738C34.7134 28.716 34.9969 29.3489 34.9968 30.0133C34.9968 30.2533 34.8993 30.7291 34.4366 31.6327C33.9084 32.6118 33.3153 33.5542 32.661 34.4538C32.347 34.0163 31.8067 33.2398 31.3233 32.4236C31.0538 31.9762 30.8131 31.5123 30.6024 31.0344C30.4455 30.7149 30.3514 30.3684 30.3251 30.0133C30.3266 28.7239 31.3715 27.679 32.661 27.6775C32.7331 27.6775 32.8047 27.6808 32.8759 27.6873C33.3748 27.7324 33.8457 27.9384 34.2176 28.2738ZM37.3209 28.4661C37.2634 29.7354 36.9435 30.9789 36.3812 32.1183C36.0156 31.8871 35.6216 31.7036 35.2094 31.5723C35.4672 31.0898 35.6221 30.5588 35.6642 30.0133C35.6614 28.8682 35.0103 27.8235 33.9833 27.3164L33.9623 27.3071C33.8877 27.2711 33.8119 27.2374 33.7345 27.2071C33.6814 27.1864 33.6263 27.1703 33.5719 27.153C33.5385 27.1429 33.5085 27.1304 33.4761 27.1196C33.3901 27.0952 33.3026 27.0753 33.2146 27.0588H33.2102C33.1569 27.0489 33.1028 27.0435 33.0487 27.0365C32.1907 26.9177 31.3234 27.1779 30.6725 27.7493C30.0214 28.3209 29.6511 29.1472 29.6577 30.0133C29.6836 30.4581 29.7959 30.8938 29.9882 31.2958C30.1752 31.7217 30.3862 32.1367 30.6202 32.5387C30.4116 32.7669 30.2207 33.0105 30.0488 33.2675C29.957 33.4247 29.8412 33.5665 29.7055 33.6877C29.6387 33.6776 29.515 33.5352 29.305 32.9108C29.1518 32.4368 29.1038 31.935 29.1645 31.4406C29.2512 30.9966 29.166 30.5364 28.9263 30.1528C28.5002 29.5569 27.7565 29.452 27.0327 29.3494C26.4701 29.2725 25.8982 29.2982 25.3449 29.4251C24.918 29.5068 24.7198 29.5372 24.4932 29.396C24.0792 29.1121 23.8722 28.6101 23.9659 28.1169C24.0551 27.85 24.3221 27.7536 24.867 27.5747C25.5785 27.3705 26.2491 27.0447 26.8494 26.6114C27.3356 26.2547 28.6181 25.3083 28.6567 24.017C28.678 23.3105 28.3246 22.8747 27.9829 22.4533C27.6672 22.1151 27.4374 21.7059 27.3129 21.2603C27.1357 20.5168 27.3553 19.645 27.951 18.6678H27.9893C29.8264 18.6705 31.6222 19.2134 33.1532 20.2289C32.9764 20.4259 32.7625 20.5859 32.5234 20.6998C32.2908 20.8005 32.0364 20.8403 31.784 20.8155C31.4331 20.7722 31.0789 20.8632 30.7923 21.0705C30.0356 21.6401 29.6965 23.0927 30.3766 24.1835C30.8607 24.9566 31.6876 25.1369 32.5906 25.3337C33.0766 25.4363 33.5789 25.4342 34.0641 25.3273C34.4536 25.2344 34.8596 25.2356 35.2484 25.3311C35.6858 25.4572 36.0964 25.6628 36.4598 25.9374C36.8371 26.2503 37.1232 26.659 37.2883 27.1206C37.3157 27.4153 37.3326 27.7109 37.3326 28.0112C37.3326 28.1604 37.3297 28.3115 37.3196 28.4661H37.3209Z" fill="#E1A519" stroke="#E1A519" stroke-width="0.3"/>
<path d="M22.6502 22.0047C23.3873 22.0047 23.9849 21.4072 23.9849 20.67C23.9849 19.9328 23.3873 19.3352 22.6502 19.3352C21.9131 19.3352 21.3154 19.9328 21.3154 20.67C21.3154 21.4072 21.9131 22.0047 22.6502 22.0047ZM22.6502 20.0026C23.0187 20.0026 23.3176 20.3014 23.3176 20.67C23.3176 21.0385 23.0187 21.3373 22.6502 21.3373C22.2816 21.3373 21.9828 21.0385 21.9828 20.67C21.9828 20.3014 22.2816 20.0026 22.6502 20.0026Z" fill="#E1A519" stroke="#E1A519" stroke-width="0.3"/>
<path d="M31.3262 29.6796C31.3262 30.4169 31.9238 31.0144 32.6609 31.0144C33.3981 31.0144 33.9957 30.4169 33.9957 29.6796C33.9957 28.9425 33.3981 28.3448 32.6609 28.3448C31.9238 28.3448 31.3262 28.9425 31.3262 29.6796ZM33.3283 29.6796C33.3283 30.0482 33.0295 30.347 32.6609 30.347C32.2924 30.347 31.9936 30.0482 31.9936 29.6796C31.9936 29.3111 32.2924 29.0122 32.6609 29.0122C33.0295 29.0122 33.3283 29.3111 33.3283 29.6796Z" fill="#E1A519" stroke="#E1A519" stroke-width="0.3"/>
</svg>
