<svg width="56" height="56" viewBox="0 0 56 56" fill="none" xmlns="http://www.w3.org/2000/svg">
<rect opacity="0.3" width="56" height="56" rx="28" fill="#1EBCB4"/>
<path d="M36.2457 20H19.7543C18.787 20 18 20.787 18 21.7543V32.7383C18 33.7056 18.787 34.4926 19.7543 34.4926H24.9005L23.4798 36.1867C23.3823 36.303 23.361 36.4653 23.4252 36.6029C23.4893 36.7404 23.6274 36.8283 23.7792 36.8283H32.2208C32.3726 36.8283 32.5107 36.7404 32.5748 36.6029C32.639 36.4653 32.6177 36.303 32.5202 36.1867L31.0995 34.4926H36.2457C37.213 34.4926 38 33.7056 38 32.7383V21.7543C38 20.787 37.213 20 36.2457 20ZM31.3834 36.0471H24.6166L25.9202 34.4927H30.0799L31.3834 36.0471ZM37.2188 32.7383C37.2188 33.2748 36.7822 33.7114 36.2457 33.7114H19.7543C19.2178 33.7114 18.7812 33.2748 18.7812 32.7383V21.7543C18.7812 21.2178 19.2178 20.7813 19.7543 20.7813H36.2457C36.7822 20.7813 37.2188 21.2178 37.2188 21.7543V32.7383Z" fill="#1EBCB4" stroke="#1EBCB4" stroke-width="0.2"/>
<rect x="20" y="22" width="16" height="8" fill="white"/>
<path d="M35.8857 21.724H20.1143C19.8985 21.724 19.7236 21.8989 19.7236 22.1146V30.4192C19.7236 30.6349 19.8985 30.8098 20.1143 30.8098H35.8857C36.1014 30.8098 36.2763 30.6349 36.2763 30.4192V22.1146C36.2763 21.8989 36.1014 21.724 35.8857 21.724ZM35.495 30.0285H20.5049V22.5052H35.495V30.0285Z" fill="#1EBCB4" stroke="#1EBCB4" stroke-width="0.2"/>
<path d="M24.0322 28.6757C24.097 28.7178 24.171 28.7388 24.2451 28.7388C24.3191 28.7388 24.3931 28.7178 24.4579 28.6758C24.7527 28.4843 26.2413 27.4988 26.5925 26.902C26.7376 26.6556 26.9274 26.2649 26.9013 25.7191C26.8571 24.796 26.1719 24.0729 25.3414 24.0729C24.8798 24.0729 24.4927 24.2819 24.2455 24.4613C24.0006 24.2815 23.6151 24.0729 23.1446 24.0729C22.3142 24.0729 21.629 24.796 21.5847 25.7192C21.5586 26.266 21.7485 26.6563 21.8937 26.9023C22.2429 27.4944 23.7364 28.4835 24.0322 28.6757ZM22.3651 25.7565C22.389 25.2589 22.7387 24.8541 23.1447 24.8541C23.5981 24.8541 23.9492 25.2333 23.9511 25.2353C24.0239 25.3172 24.1271 25.3655 24.2367 25.3671C24.347 25.3688 24.4508 25.3248 24.526 25.2451C24.5297 25.2412 24.9071 24.8541 25.3414 24.8541C25.7474 24.8541 26.0971 25.2589 26.1209 25.7565C26.1335 26.0201 26.0732 26.2441 25.9192 26.5057C25.7485 26.7957 24.9008 27.437 24.2451 27.8796C23.587 27.4356 22.7363 26.7931 22.5667 26.5054C22.4128 26.2446 22.3525 26.0206 22.3651 25.7565Z" fill="#1EBCB4" stroke="#1EBCB4" stroke-width="0.2"/>
<path d="M28.0074 26.3993H29.1286L29.5347 27.0077C29.6157 27.1289 29.7572 27.195 29.9023 27.1791C30.0472 27.1632 30.1712 27.0679 30.2238 26.932L30.4851 26.2578L30.9598 27.8771C31.0067 28.0373 31.1503 28.15 31.3171 28.1575C31.323 28.1578 31.3288 28.1579 31.3347 28.1579C31.4946 28.1579 31.6392 28.0602 31.6981 27.9103L32.3113 26.3521C32.384 26.4291 32.4863 26.4746 32.5954 26.4746H34.0272C34.2429 26.4746 34.4178 26.2997 34.4178 26.084C34.4178 25.8682 34.2429 25.6934 34.0272 25.6934H32.8373L32.611 25.2385C32.5422 25.1003 32.3987 25.0157 32.2443 25.0222C32.0901 25.0289 31.9543 25.1258 31.8977 25.2694L31.3887 26.563L30.9113 24.9344C30.8642 24.7739 30.7202 24.6611 30.553 24.6541C30.3863 24.6468 30.2327 24.7471 30.1722 24.9032L29.7671 25.9487L29.6623 25.7918C29.5898 25.6832 29.4679 25.618 29.3374 25.618H28.0073C27.7916 25.618 27.6167 25.7929 27.6167 26.0086C27.6167 26.2244 27.7916 26.3993 28.0074 26.3993Z" fill="#1EBCB4" stroke="#1EBCB4" stroke-width="0.2"/>
<path d="M28.5937 31.6456H27.4067C27.191 31.6456 27.0161 31.8205 27.0161 32.0363C27.0161 32.252 27.191 32.4269 27.4067 32.4269H28.5937C28.8095 32.4269 28.9844 32.252 28.9844 32.0363C28.9844 31.8205 28.8095 31.6456 28.5937 31.6456Z" fill="#1EBCB4" stroke="#1EBCB4" stroke-width="0.2"/>
</svg>
