<?xml version="1.0"?>
<svg xmlns="http://www.w3.org/2000/svg" height="512px" viewBox="0 0 64 64" width="512px"><g><path d="m54 2h-44a3 3 0 0 0 -3 3v54a3 3 0 0 0 3 3h44a3 3 0 0 0 3-3v-54a3 3 0 0 0 -3-3zm-43 58h-1a1 1 0 0 1 -1-1v-54a1 1 0 0 1 1-1h1zm7-56h28v4h-28zm25 49v7h-30v-56h3v6h32v-6h3v48h-7a1 1 0 0 0 -1 1zm2 1h4.586l-4.586 4.586zm10 5a1 1 0 0 1 -1 1h-7.586l6.293-6.293a1 1 0 0 0 .293-.707v-49h1a1 1 0 0 1 1 1z" data-original="#000000" class="active-path" data-old_color="#000000" fill="#FFFFFF"/><path d="m15 17v18h34v-18zm4 16h-2v-2h2zm0-4h-2v-2h2zm0-4h-2v-2h2zm0-4h-2v-2h2zm28 12h-26v-2h26zm0-4h-26v-2h26zm0-4h-26v-2h26zm0-4h-26v-2h26z" data-original="#000000" class="active-path" data-old_color="#000000" fill="#FFFFFF"/><path d="m23.567 46.629a6.7 6.7 0 0 1 -1.567.371 6.7 6.7 0 0 1 -1.567-.371c-1.32-.41-2.964-.918-4.185-.018-.84.618-1.248 1.727-1.248 3.389 0 3.159 2.24 8 5 8 1.281 0 1.647-1.465 1.97-2.758.009-.037.019-.077.03-.119.011.042.021.082.03.119.323 1.293.689 2.758 1.97 2.758 2.76 0 5-4.841 5-8 0-1.662-.408-2.771-1.248-3.389-1.221-.9-2.864-.392-4.185.018zm.735 9.3c-.119-.317-.246-.828-.332-1.168-.323-1.296-.689-2.761-1.97-2.761s-1.647 1.465-1.97 2.758c-.086.34-.213.851-.332 1.168-1.077-.495-2.698-3.359-2.698-5.926 0-1.316.3-1.683.435-1.779.409-.3 1.563.056 2.406.318a7.666 7.666 0 0 0 2.159.461 7.666 7.666 0 0 0 2.159-.461c.843-.262 2-.619 2.406-.318.131.1.435.463.435 1.779 0 2.567-1.621 5.431-2.7 5.926z" data-original="#000000" class="active-path" data-old_color="#000000" fill="#FFFFFF"/><path d="m31 48h14v2h-14z" data-original="#000000" class="active-path" data-old_color="#000000" fill="#FFFFFF"/><path d="m31 52h10v2h-10z" data-original="#000000" class="active-path" data-old_color="#000000" fill="#FFFFFF"/><path d="m31 56h8v2h-8z" data-original="#000000" class="active-path" data-old_color="#000000" fill="#FFFFFF"/><path d="m47 48h2v2h-2z" data-original="#000000" class="active-path" data-old_color="#000000" fill="#FFFFFF"/><path d="m15 37h34v2h-34z" data-original="#000000" class="active-path" data-old_color="#000000" fill="#FFFFFF"/><path d="m15 41h14v2h-14z" data-original="#000000" class="active-path" data-old_color="#000000" fill="#FFFFFF"/><path d="m31 41h8v2h-8z" data-original="#000000" class="active-path" data-old_color="#000000" fill="#FFFFFF"/><path d="m41 41h2v2h-2z" data-original="#000000" class="active-path" data-old_color="#000000" fill="#FFFFFF"/><path d="m23 12h18v2h-18z" data-original="#000000" class="active-path" data-old_color="#000000" fill="#FFFFFF"/><path d="m43 12h2v2h-2z" data-original="#000000" class="active-path" data-old_color="#000000" fill="#FFFFFF"/><path d="m19 12h2v2h-2z" data-original="#000000" class="active-path" data-old_color="#000000" fill="#FFFFFF"/></g> </svg>
